# xmcd CD database file
#
# Track frame offsets:
#	150
#	15266
#	31464
#	44132
#	56302
#	69752
#	82075
#	97547
#	110812
#	125008
#	139400
#	152920
#	165941
#	178381
#	191215
#	204283
#	217309
#	230378
#	245223
#	256538
#	270455
#	283180
#	296717
#	311559
#
# Disc length: 4312 seconds
#
# Revision: 2
# Processed by: cddbd v1.4PL0 Copyright (c) Steve Scherf et al.
# Submitted via: CDex 1.50Beta7
#
DISCID=6710d618
DTITLE=Sippie Wallace - Complete Recorded Works Vol. 1 (1923-1925)
DYEAR=1995
DGENRE=Blues
TTITLE0=Up the Country Blues (1923)
TTITLE1=Shorty George Blues (1923)
TTITLE2=Mama's Gone, Goodbye (1924)
TTITLE3=Caladonia Blues (1924)
TTITLE4=Underworld Blues (1924)
TTITLE5=Leavin' Me, Daddy, is Hard to Do (1924)
TTITLE6=Can Anybody Take Sweet Mama's Place¿ (1924)
TTITLE7=Stranger's Blues (1924)
TTITLE8=Sud Bustin' Blues (1924)
TTITLE9=Wicked Monday Morning Blues (1924)
TTITLE10=Baby, I Can't Use You No More (1924)
TTITLE11=Trouble Everywhere I Roam (1924)
TTITLE12=I've Stopped My Man (1924)
TTITLE13=Walkin' Talkin' Blues (1924)
TTITLE14=I'm So Glad I'm Brownskin (1924)
TTITLE15=Off and On Blues (1924)
TTITLE16=He's the Cause of Me Being Blue (1924)
TTITLE17=Let My Man Alone Blues (1924)
TTITLE18=Morning Dove Blues (1925)
TTITLE19=Devil Dance Blues (1925)
TTITLE20=Every Dog Has His Day (1925)
TTITLE21=Section Hand Blues (1925)
TTITLE22=Parlor Social De Luxe (1925)
TTITLE23=Being Down Don't Worry Me (1925)
EXTD=YEAR: 1995
EXTT0=
EXTT1=
EXTT2=
EXTT3=
EXTT4=
EXTT5=
EXTT6=
EXTT7=
EXTT8=
EXTT9=
EXTT10=
EXTT11=
EXTT12=
EXTT13=
EXTT14=
EXTT15=
EXTT16=
EXTT17=
EXTT18=
EXTT19=
EXTT20=
EXTT21=
EXTT22=
EXTT23=
PLAYORDER=
